<svg xmlns="http://www.w3.org/2000/svg" width="24" height="24" viewBox="0 0 24 24" fill="none">
  <path d="M4.70012 15.8C4.00012 17.7 3.60012 19 3.40012 19.7C2.80012 22.1 2.40012 22.6 4.50012 21.5C6.60012 20.4 16.5001 14.8 18.8001 13.6C21.7001 12 21.7001 12.1 18.6001 10.4C16.3001 9.00001 6.40012 3.60001 4.60012 2.50001C2.80012 1.40001 2.90012 1.90001 3.40012 4.30001C3.60012 5.10001 4.00012 6.40001 4.70012 8.20001C5.20012 9.50001 6.30012 10.5 7.70012 10.7L13.5001 11.8C13.6001 11.8 13.6001 11.9 13.6001 11.9C13.6001 11.9 13.6001 12 13.5001 12L7.70012 13.1C6.40012 13.5 5.20012 14.4 4.70012 15.8Z" fill="#8C8C8C"/>
</svg>